# xmcd
#
# Track frame offsets:
#	150
#	19811
#	34850
#	49384
#	61934
#	80063
#	99387
#	118177
#	136202
#	150679
#	166925
#	182167
#	205068
#	219936
#	237602
#	254972
#	272425
#	290366
#	308269
#	327461
#
# Disc length: 4596 seconds
#
# Revision: 0
# Processed by: cddbd v1.5.2PL0 Copyright (c) Steve Scherf et al.
# Submitted via: EasyCDDAExtractor 2010.6.0.0
#
DISCID=2411f214
DTITLE=Various Artist - 100 Hits - 90's Anthems - Cd 5
DYEAR=1900
DGENRE=
TTITLE0=Mansun - I Can Only Dissapoint U
TTITLE1=Supergrass - Pumpin' On Your Stereo
TTITLE2=Embrace - My Weakness Is None Of Your Business
TTITLE3=Fun Lovin' Criminals - Korean Bodega
TTITLE4=River City People - What's Wrong With Dreaming
TTITLE5=The Proclaimers - Let's Get Married
TTITLE6=Thunder - Low Life In High Places
TTITLE7=Duran Duran - Come Undone
TTITLE8=The Dandy Warhols - Not If You Were The Last Junkie On Earth
TTITLE9=Melanie C - Goin' Down
TTITLE10=The Supernaturals - The Day Before Yesterday's Man
TTITLE11=Gomez - Rhythm And Blues Alibi
TTITLE12=Crowded House - Fall At Your Feet
TTITLE13=Bryan Ferry - I Put A Spell On You
TTITLE14=Deborah Harry - I Can See Clearly
TTITLE15=Babylon Zoo - Spaceman
TTITLE16=Mc Hammer - Addams Groove
TTITLE17=Maxi Priest Feat. Shaggy - That Girl
TTITLE18=Shaggy Feat Marsha - Piece Of My Heart
TTITLE19=Ub40 - Kingston Town
EXTD=
EXTT0=
EXTT1=
EXTT2=
EXTT3=
EXTT4=
EXTT5=
EXTT6=
EXTT7=
EXTT8=
EXTT9=
EXTT10=
EXTT11=
EXTT12=
EXTT13=
EXTT14=
EXTT15=
EXTT16=
EXTT17=
EXTT18=
EXTT19=
PLAYORDER=
